<?xml version="1.0" encoding="UTF-8"?>
<svg width="229px" height="242px" viewBox="0 0 229 242" version="1.1" xmlns="http://www.w3.org/2000/svg" xmlns:xlink="http://www.w3.org/1999/xlink">
    <!-- Generator: Sketch 41.2 (35397) - http://www.bohemiancoding.com/sketch -->
    <title>people</title>
    <desc>Created with Sketch.</desc>
    <defs></defs>
    <g id="Page-1" stroke="none" stroke-width="1" fill="none" fill-rule="evenodd">
        <g id="people">
            <g id="Vector-Smart-Object2">
                <g id="Layer_1">
                    <g id="Group" transform="translate(0.000000, 18.602312)">
                        <path d="M67.6257794,85.2605944 L54.364302,85.2605944 C10.7022449,85.2605944 17.3717598,119.9074 20.1636498,222.995209 C28.2291097,223.537777 54.364302,225.553027 54.364302,225.553027 L67.6257794,225.553027 C67.6257794,225.553027 93.3732091,223.382757 101.361117,222.84019 C104.153007,119.75238 99.8100665,85.2605944 67.6257794,85.2605944 Z" id="Shape" fill="#29235C"></path>
                        <g transform="translate(23.265750, -0.000000)">
                            <path d="M75.1483718,38.2122482 C75.1483718,18.6798211 58.3194794,0.310038525 37.6129621,0.310038525 C16.9064448,0.310038525 0.0775524993,18.6798211 0.0775524993,38.2122482 C0.0775524993,57.7446753 16.9064448,73.5566401 37.6129621,73.5566401 C58.3194794,73.5566401 75.1483718,57.7446753 75.1483718,38.2122482 Z" id="Shape" fill="#DC052B"></path>
                            <path d="M27.6086897,61.1550991 L27.6862422,89.1360759 C27.9964522,93.8641635 32.3393922,97.5071161 37.6129621,97.5071161 C42.7314271,97.5071161 46.9192621,94.0191827 47.4621295,89.5236241 L47.539682,61.0775894 L27.6086897,61.0775894 L27.6086897,61.1550991 Z" id="Shape" fill="#EBB1A8"></path>
                            <path d="M39.4742221,76.8895542 L39.4742221,76.8895542 C27.3760322,76.8895542 12.3308474,67.5108888 10.0818249,51.3888855 L8.99608991,41.0801046 C6.74706744,25.0356109 17.6819698,10.2312713 33.2700222,8.06100165 L33.2700222,8.06100165 C48.8580745,5.89073198 66.6175969,13.6416951 66.6175969,43.5604128 L66.6175969,43.5604128 C64.8338894,61.1550991 55.0622745,74.7192845 39.4742221,76.8895542 Z" id="Shape" fill="#F8C5B9"></path>
                            <path d="M62.5073144,21.0051101 L61.3440269,17.5171767 C62.1195519,16.7420804 65.5318619,18.0597441 65.2216519,16.81959 C62.2746569,6.51080903 42.4987696,0.155019263 30.5556847,6.04575124 C10.5471399,15.966984 1.31839249,27.0508613 2.17146998,37.9797193 L9.61650991,37.9797193 C9.77161491,32.2440066 11.3226649,26.5082939 14.5798699,21.9352256 C18.2248373,25.3456494 28.4617672,30.7713236 37.8456196,21.7802064 C40.4824046,23.5629279 51.4948595,30.7713236 62.5073144,21.0051101 Z" id="Shape" fill="#DC052B"></path>
                            <ellipse id="Oval" fill="#F8C5B9" cx="9.53895741" cy="43.7929417" rx="5.58377995" ry="5.81322234"></ellipse>
                            <ellipse id="Oval" fill="#F8C5B9" cx="65.7645194" cy="43.7929417" rx="5.58377995" ry="5.81322234"></ellipse>
                            <ellipse id="Oval" fill="#F6BDBB" cx="19.6983348" cy="52.8615685" rx="6.35930494" ry="6.35578976"></ellipse>
                            <ellipse id="Oval" fill="#F6BDBB" cx="56.3031145" cy="52.8615685" rx="6.35930494" ry="6.35578976"></ellipse>
                            <g transform="translate(25.592325, 34.879334)" id="Shape" stroke="#3C3C3B" stroke-width="2" stroke-linecap="round">
                                <path d="M7.05727743,2.86785636 C6.66951494,1.39517336 5.35112245,0.310038525 3.72251996,0.310038525 C2.17146998,0.310038525 0.775524993,1.39517336 0.387762496,2.79034673"></path>
                                <path d="M24.3514848,2.94536599 C23.9637223,1.47268299 22.6453298,0.387548156 21.0167273,0.387548156 C19.4656773,0.387548156 18.0697323,1.47268299 17.6819698,2.86785636"></path>
                            </g>
                            <path d="M31.1761047,59.6049064 C33.1924697,61.3101183 35.4414922,62.2402339 37.7680671,62.1627243 C40.0946421,62.0852146 42.2661121,61.0000798 44.2049246,59.1398487" id="Shape" stroke="#F197A6" stroke-width="2" stroke-linecap="round"></path>
                            <path d="M38.0007246,41.7776912 C38.0007246,41.7776912 38.0007246,47.0483462 40.1721946,48.2109906 C42.3436646,49.3736351 42.7314271,52.7840589 39.1640121,53.4041359" id="Shape" stroke="#EFBBB1" stroke-width="2"></path>
                        </g>
                        <g transform="translate(80.654599, 88.360980)" id="Shape">
                            <path d="M18.1472848,135.099287 C19.4656773,125.643112 17.9921798,108.901032 19.0003623,89.4461145 C19.3881248,81.8501706 15.7431573,57.6671657 15.7431573,57.6671657 L33.2700222,53.171607 C33.2700222,53.171607 36.4496747,70.7662933 34.2006522,90.37623 C32.3393922,106.575743 26.8331647,123.782881 22.3351198,135.331816 L18.1472848,135.099287 Z" fill="#EBB1A8"></path>
                            <path d="M4.26538746,1.31766373 C4.26538746,1.31766373 27.4535847,10.928858 33.7353372,39.9174601 C35.1312822,46.5057788 35.6741497,52.4740204 35.6741497,52.4740204 L15.7431573,57.589656 C15.7431573,57.589656 13.8043449,35.1893726 9.38385241,23.7954568 C5.42867495,13.6416951 -5.42867495,-3.56544304 4.26538746,1.31766373 Z" fill="#312782"></path>
                            <path d="M34.8986247,47.2808751 L15.1227374,52.3190011" stroke="#DC052B" stroke-width="3"></path>
                        </g>
                        <g transform="translate(34.898625, 150.368685)" id="Shape">
                            <path d="M37.6129621,2.79034673 L12.9512674,2.71283709 C12.7961624,2.71283709 12.6410574,2.55781783 12.6410574,2.40279857 L12.6410574,0.930115575 C12.6410574,0.775096313 12.7961624,0.62007705 12.9512674,0.62007705 L37.6129621,0.697586681 C37.7680671,0.697586681 37.9231721,0.852605944 37.9231721,1.00762521 L37.9231721,2.4803082 C37.9231721,2.63532746 37.7680671,2.79034673 37.6129621,2.79034673 Z" fill="#CCCCCC"></path>
                            <path d="M49.1682845,68.2084755 L1.00818249,68.0534562 C0.775524993,68.0534562 0.620419994,67.898437 0.620419994,67.6659081 L0.853077492,1.62770226 C0.853077492,1.39517336 1.00818249,1.2401541 1.24083999,1.2401541 L49.400942,1.39517336 C49.6335995,1.39517336 49.7887045,1.55019263 49.7887045,1.78272152 L49.556047,67.8209274 C49.4784945,68.0534562 49.3233895,68.2084755 49.1682845,68.2084755 Z" fill="#00B1BA"></path>
                        </g>
                        <g transform="translate(0.000000, 88.360980)" id="Shape">
                            <path d="M2.94699497,50.0712218 C2.94699497,50.0712218 -0.387762496,61.6976665 1.93881248,82.8577958 C5.27356995,112.621494 37.6129621,129.828632 49.9438095,124.790506 C63.5930494,119.209813 49.0131795,115.954408 49.0131795,115.954408 C49.0131795,115.954408 22.4902248,114.326706 19.6207823,86.3457292 C18.7677048,78.1297083 19.9309923,56.8920693 19.9309923,56.8920693 L2.94699497,50.0712218 Z" fill="#F8C5B9"></path>
                            <path d="M33.7353372,1.2401541 C33.7353372,1.2401541 9.22874741,11.1613869 2.48167998,41.7001816 C0.930629991,48.5985388 0.387762496,54.9543286 0.387762496,54.9543286 L20.5514123,60.3024931 C20.5514123,60.3024931 23.5759598,39.9174601 28.2291097,28.7560732 C33.0373647,17.2071381 43.9722671,-3.79797193 33.7353372,1.2401541 Z" fill="#312782"></path>
                            <path d="M1.16328749,49.3736351 L21.3269373,54.7217997" stroke="#DC052B" stroke-width="3"></path>
                            <g transform="translate(32.572050, 109.288580)" fill="#F8C5B9">
                                <g>
                                    <path d="M24.9719048,9.9212328 C25.5923248,6.27828013 24.2739323,6.12326087 17.4493123,4.41804898 C16.5962348,4.18552009 13.9594499,1.93774078 11.9430849,1.31766373 C4.65314996,-0.930115575 1.16328749,2.86785636 0.620419994,6.51080903 L0.232657498,8.60356907 C-0.310209997,11.5489351 2.17146998,14.8818492 5.11846495,15.8894744 C7.60014493,16.7420804 9.53895741,17.2071381 13.8818974,17.5171767 C19.6207823,17.439667 24.1188273,15.0368685 24.9719048,9.9212328 Z"></path>
                                    <path d="M11.0124549,1.31766373 C12.4083999,1.16264447 14.1145549,2.24777931 17.9146273,1.62770226 C19.2330198,1.47268299 19.4656773,2.4803082 19.1554673,3.17789488 C18.7677048,3.87548156 16.9839973,5.73571271 9.38385241,4.26302972 C1.78370748,2.71283709 11.0124549,1.31766373 11.0124549,1.31766373 Z"></path>
                                </g>
                                <path d="M17.3717598,4.41804898 C16.7513398,4.72808751 13.4941349,4.57306824 13.1839249,4.49555861 C13.1839249,4.49555861 14.5023174,4.65057788 16.8288923,5.19314529 C17.9921798,5.50318382 19.3105723,4.88310677 19.0779148,4.80559714 C19.0779148,4.88310677 18.0697323,4.57306824 17.3717598,4.41804898 Z" opacity="0.3"></path>
                            </g>
                        </g>
                    </g>
                    <g id="Group" transform="translate(96.165099, 0.000000)">
                        <path d="M79.4913117,89.0585663 L51.572412,88.9810567 C26.3678497,88.9810567 17.5268648,108.203445 17.5268648,241.520011 C26.9882697,242.140088 57.0786395,244.697906 57.0786395,244.697906 L72.5891393,244.775416 C72.5891393,244.775416 102.757062,242.450127 112.140914,241.907559 C115.863434,127.425834 106.867344,89.0585663 79.4913117,89.0585663 Z" id="Shape" fill="#29235C"></path>
                        <path d="M100.120277,143.00527 L79.8790742,143.00527 C79.6464167,143.00527 79.4913117,142.85025 79.4913117,142.617722 L79.4913117,139.982394 C79.4913117,139.749865 79.6464167,139.594846 79.8790742,139.594846 L100.120277,139.594846 C100.352934,139.594846 100.508039,139.749865 100.508039,139.982394 L100.508039,142.617722 C100.508039,142.85025 100.352934,143.00527 100.120277,143.00527 Z" id="Shape" fill="#312782"></path>
                        <path d="M112.218466,241.907559 C113.614411,231.521269 112.063361,212.918957 113.149096,191.448789 C113.614411,183.000239 109.581681,156.336926 109.581681,156.336926 L128.969806,151.37631 C128.969806,151.37631 132.459669,170.831227 129.977989,192.456414 C127.961624,210.361139 121.834976,229.350999 116.871616,242.140088 L112.218466,241.907559 Z" id="Shape" fill="#F8C5B9"></path>
                        <path d="M96.9406241,94.0191827 C96.9406241,94.0191827 122.532949,104.638002 129.435121,136.64948 C130.986171,143.935385 131.529039,150.601214 131.529039,150.601214 L109.504129,156.259417 C109.504129,156.259417 107.332659,131.533844 102.524404,118.899774 C98.1814641,107.660878 86.1608267,88.6710182 96.9406241,94.0191827 Z" id="Shape" fill="#312782"></path>
                        <path d="M130.753514,144.865501 L108.883709,150.446194" id="Shape" stroke="#DC052B" stroke-width="3"></path>
                        <path d="M19.8534398,241.907559 C18.4574948,231.521269 20.0085448,212.918957 18.9228098,191.448789 C18.4574948,183.000239 22.4902248,156.336926 22.4902248,156.336926 L3.10209997,151.37631 C3.10209997,151.37631 -0.387762496,170.831227 2.09391748,192.456414 C4.11028246,210.361139 10.2369299,229.350999 15.2002899,242.140088 L19.8534398,241.907559 Z" id="Shape" fill="#F8C5B9"></path>
                        <path d="M35.1312822,94.0191827 C35.1312822,94.0191827 9.53895741,104.638002 2.63678497,136.64948 C1.08573499,143.935385 0.542867495,150.601214 0.542867495,150.601214 L22.5677773,156.259417 C22.5677773,156.259417 24.7392473,131.533844 29.5475022,118.899774 C33.8904422,107.660878 45.9110796,88.6710182 35.1312822,94.0191827 Z" id="Shape" fill="#312782"></path>
                        <path d="M1.31839249,144.865501 L23.1881973,150.446194" id="Shape" stroke="#DC052B" stroke-width="3"></path>
                        <g transform="translate(31.796525, 86.035691)">
                            <g transform="translate(47.307025, 55.806935)">
                                <ellipse id="Oval" fill="#E6E7E8" cx="8.60832742" cy="8.75858833" rx="7.36748743" ry="7.28590534"></ellipse>
                                <path d="M8.60832742,16.9746092 C4.03272996,16.9746092 0.387762496,13.3316566 0.387762496,8.75858833 C0.387762496,4.18552009 4.11028246,0.542567419 8.60832742,0.542567419 C13.1839249,0.542567419 16.8288923,4.18552009 16.8288923,8.75858833 C16.8288923,13.3316566 13.1839249,16.9746092 8.60832742,16.9746092 Z M8.60832742,2.40279857 C5.04091245,2.40279857 2.17146998,5.27065493 2.17146998,8.75858833 C2.17146998,12.2465217 5.04091245,15.1143781 8.60832742,15.1143781 C12.1757424,15.1143781 15.0451849,12.2465217 15.0451849,8.75858833 C15.0451849,5.27065493 12.1757424,2.40279857 8.60832742,2.40279857 Z" id="Shape" fill="#6D6E71"></path>
                            </g>
                            <path d="M55.915352,69.4486296 C53.0459095,69.4486296 50.7193345,67.2783599 50.7193345,64.5655228 C50.7193345,61.8526857 53.0459095,59.6824161 55.915352,59.6824161 C58.7847944,59.6824161 61.1113694,61.8526857 61.1113694,64.5655228 C61.1113694,67.2783599 58.7847944,69.4486296 55.915352,69.4486296 Z M55.915352,60.6900413 C53.588777,60.6900413 51.727517,62.4727628 51.727517,64.5655228 C51.727517,66.7357925 53.588777,68.4410044 55.915352,68.4410044 C58.2419269,68.4410044 60.1031869,66.6582829 60.1031869,64.5655228 C60.1031869,62.4727628 58.2419269,60.6900413 55.915352,60.6900413 Z" id="Shape" fill="#808285"></path>
                            <path d="M1.47349749,66.6582829 C-4.49804496,94.5617501 17.7595223,108.435974 19.1554673,109.28858 C19.1554673,109.28858 21.0167273,110.141186 23.3433023,108.513484" id="Shape" stroke="#6D6E71" stroke-width="2"></path>
                            <path d="M1.24083999,67.8209274 C1.24083999,67.8209274 2.24902248,58.9848294 10.7797974,55.8069345 C10.7797974,55.8069345 -3.87762496,0.0775096313 34.5884147,0.0775096313 C73.0544543,0.0775096313 58.0868219,57.3571271 58.0868219,57.3571271" id="Shape" stroke="#DD052B" stroke-width="4"></path>
                            <path d="M24.4290373,57.8221849 C46.6090521,74.0992075 39.2415646,100.064934 38.5435921,101.227578 C37.8456196,102.312713 36.9925421,102.777771 35.5965972,103.552867" id="Shape" stroke="#6D6E71" stroke-width="2"></path>
                            <path d="M25.5923248,58.8298101 C25.5923248,58.8298101 21.2493848,53.6366648 10.7797974,55.8069345" id="Shape" stroke="#DD052B" stroke-width="4"></path>
                            <ellipse id="Oval" fill="#6D6E71" transform="translate(24.012441, 108.179355) rotate(-25.417034) translate(-24.012441, -108.179355) " cx="24.0124408" cy="108.179355" rx="2.86941791" ry="1.39516142"></ellipse>
                            <ellipse id="Oval" fill="#6D6E71" transform="translate(35.176325, 103.455453) rotate(-25.417034) translate(-35.176325, -103.455453) " cx="35.1763247" cy="103.455453" rx="2.86941791" ry="1.39516142"></ellipse>
                        </g>
                        <g transform="translate(29.469950, 0.000000)">
                            <path d="M60.9562644,62.6277821 C60.9562644,62.6277821 66.8502544,56.7370501 68.0135419,31.7789488 C68.6339618,18.4472922 63.2052869,13.874224 63.2052869,13.874224 C63.2052869,13.874224 65.9971769,12.0915025 63.2052869,7.75096313 C61.1113694,4.49555861 52.813252,0.697586681 35.1312822,0.697586681 C17.8370748,0.697586681 9.61650991,7.98349202 6.97972493,15.2693974 C3.48986247,24.803082 2.79188997,36.7395652 4.11028246,45.0330958 C5.42867495,53.4041359 11.2451124,62.1627243 11.2451124,62.1627243 L60.9562644,62.6277821 Z" id="Shape" fill="#4F2900"></path>
                            <path d="M23.1881973,61.3101183 L23.1881973,92.3914805 C23.5759598,97.5846258 29.0046347,101.770146 35.6741497,101.770146 C42.1110071,101.770146 47.384577,97.9721739 48.160102,93.0115575 L48.3927595,61.4651376 L23.1881973,61.3101183 Z" id="Shape" fill="#EBB1A8"></path>
                            <ellipse id="Oval" fill="#F8C5B9" transform="translate(63.817626, 42.025538) rotate(-89.809470) translate(-63.817626, -42.025538) " cx="63.8176263" cy="42.0255375" rx="7.36752817" ry="7.05341544"></ellipse>
                            <path d="M13.0288199,18.6798211 C13.0288199,18.6798211 -6.35930494,84.0979499 36.7598846,84.0979499 C76.9320793,84.0979499 59.1725569,18.8348404 59.1725569,18.8348404 C59.1725569,18.8348404 55.8377995,4.80559714 36.6047797,4.72808751 C17.5268648,4.65057788 13.0288199,18.6798211 13.0288199,18.6798211 Z" id="Shape" fill="#F8C5B9"></path>
                            <path d="M65.5318619,24.2605146 C65.5318619,24.2605146 53.898987,29.6861888 40.4824046,29.6086791 C44.8253446,26.7408228 47.694787,15.8119648 50.486677,13.4866758 C58.3970319,7.05337644 65.5318619,24.2605146 65.5318619,24.2605146 Z" id="Shape" fill="#4F2900"></path>
                            <path d="M57.8541644,19.9974849 C57.8541644,19.9974849 37.2251996,31.5464199 0.387762496,26.5858035 C16.2084723,14.8043396 14.9676324,14.7268299 15.9758148,9.61119428 C16.9064448,4.41804898 57.8541644,19.9974849 57.8541644,19.9974849 Z" id="Shape" fill="#4F2900"></path>
                            <ellipse id="Oval" fill="#3C3C3B" transform="translate(47.361288, 41.909233) rotate(-9.154319) translate(-47.361288, -41.909233) " cx="47.361288" cy="41.9092328" rx="2.09399506" ry="2.09283758"></ellipse>
                            <ellipse id="Oval" fill="#3C3C3B" transform="translate(24.948499, 42.067004) rotate(-9.154319) translate(-24.948499, -42.067004) " cx="24.9484994" cy="42.0670037" rx="2.09399506" ry="2.09283758"></ellipse>
                            <path d="M35.6741497,41.9327105 C35.6741497,41.9327105 36.6047797,50.6137892 33.9679947,54.64429 C27.9188997,63.7904265 34.5884147,62.3952532 39.5517746,61.8526857" id="Shape" stroke="#EFBBB1" stroke-width="2"></path>
                            <path d="M40.4048521,69.2936103 C39.0089071,69.991197 37.4578571,70.3787452 35.8292547,70.3787452 C34.2006522,70.3787452 32.6496022,69.991197 31.2536572,69.37112" id="Shape" stroke="#DB9080" stroke-width="2" stroke-linecap="round"></path>
                            <path d="M44.0498196,36.8945845 C45.5233171,34.7243148 50.641782,34.0267281 53.5112245,37.0496037" id="Shape" stroke="#3A1B00" stroke-width="2" stroke-linecap="round"></path>
                            <path d="M18.6125998,36.8170748 C20.0860973,34.6468052 25.2045623,33.9492185 28.0740047,36.9720941" id="Shape" stroke="#3A1B00" stroke-width="2" stroke-linecap="round"></path>
                            <ellipse id="Oval" fill="#F8C5B9" transform="translate(8.212073, 41.838431) rotate(-89.809470) translate(-8.212073, -41.838431) " cx="8.21207298" cy="41.8384311" rx="7.36752817" ry="7.05341544"></ellipse>
                            <polygon id="Shape" fill="#4F2900" points="8.91853741 14.8043396 19.3881248 6.27828013 40.5599571 4.18552009 56.535772 4.72808751 59.6378719 10.4638002 61.4991319 16.8970996 49.0131795 19.764956 36.9149896 16.8970996 7.91035492 21.7802064"></polygon>
                            <polygon id="Shape" fill="#4F2900" points="11.4777699 27.1283709 10.4695874 39.5299119 7.91035492 31.1588718"></polygon>
                            <polygon id="Shape" fill="#4F2900" points="60.9562644 25.4231591 61.4991319 39.5299119 63.6706019 31.313891"></polygon>
                        </g>
                    </g>
                    <path d="M87.9445342,147.733357 L68.3237518,147.733357 C68.0910944,147.733357 67.9359894,147.578338 67.9359894,147.345809 L67.9359894,144.865501 C67.9359894,144.632972 68.0910944,144.477953 68.3237518,144.477953 L87.9445342,144.477953 C88.1771917,144.477953 88.3322967,144.632972 88.3322967,144.865501 L88.3322967,147.345809 C88.3322967,147.578338 88.1771917,147.733357 87.9445342,147.733357 Z" id="Shape" fill="#312782"></path>
                    <path d="M74.9932668,141.610096 C74.9932668,136.882009 74.0626368,133.084037 72.9769018,133.084037 C71.8136143,133.084037 70.9605368,136.882009 70.9605368,141.610096 L70.9605368,144.477953 L75.0708193,144.477953 L75.0708193,141.610096 L74.9932668,141.610096 Z" id="Shape" fill="#CCCCCC"></path>
                    <rect id="Rectangle-path" fill="#FFFFFF" x="72.5891393" y="138.354692" width="0.620419994" height="11.5489351"></rect>
                    <rect id="Rectangle-path" fill="#DC052B" transform="translate(77.220032, 142.382790) rotate(-90.000000) translate(-77.220032, -142.382790) " x="75.1261142" y="141.297655" width="4.18783496" height="2.17026968"></rect>
                    <polygon id="Shape" fill="#F8E6D7" points="76.5443168 140.990019 76.1565543 140.292433 78.3280243 140.292433 78.0178143 140.990019 77.7851568 140.447452 77.5524993 140.990019 77.2422893 140.369942 77.0096318 140.990019 76.6994218 140.369942"></polygon>
                    <polygon id="Shape" fill="#F8E6D7" points="76.1565543 140.292433 78.3280243 140.292433 77.3973943 137.192047 77.0096318 137.192047"></polygon>
                    <polygon id="Shape" fill="#000000" points="77.0096318 137.269557 77.3973943 137.269557 77.2422893 136.64948"></polygon>
                </g>
            </g>
        </g>
    </g>
</svg>